<mxfile host="app.diagrams.net" modified="2021-10-08T04:09:25.377Z" agent="5.0 (Macintosh; Intel Mac OS X 10_15_7) AppleWebKit/537.36 (KHTML, like Gecko) Chrome/94.0.4606.61 Safari/537.36" etag="HrldMmXDUIzMrV2MC1CO" version="15.4.3" type="github">
  <diagram id="_WUqcH7q6z4gGTYyFeMR" name="Page-1">
    <mxGraphModel dx="742" dy="479" grid="1" gridSize="10" guides="1" tooltips="1" connect="1" arrows="1" fold="1" page="1" pageScale="1" pageWidth="1920" pageHeight="1200" math="0" shadow="0">
      <root>
        <mxCell id="0" />
        <mxCell id="1" parent="0" />
      </root>
    </mxGraphModel>
  </diagram>
</mxfile>
